<?xml version="1.0" standalone="no"?>
<!DOCTYPE svg PUBLIC "-//W3C//DTD SVG 20010904//EN"
 "http://www.w3.org/TR/2001/REC-SVG-20010904/DTD/svg10.dtd">
<svg version="1.0" xmlns="http://www.w3.org/2000/svg"
 width="1376.000000pt" height="838.000000pt" viewBox="0 0 1376.000000 838.000000"
 preserveAspectRatio="xMidYMid meet">

<g transform="translate(0.000000,838.000000) scale(0.100000,-0.100000)"
fill="#EDEEFF" stroke="none">
<path d="M3812 8083 c-6 -16 -13 -59 -17 -98 -3 -38 -8 -85 -11 -103 -4 -37
11 -76 27 -67 5 4 8 9 5 13 -2 4 4 59 13 122 16 115 17 160 2 160 -5 0 -13
-12 -19 -27z"/>
<path d="M11104 7915 c-13 -32 7 -42 147 -73 78 -18 144 -34 147 -37 2 -2 2
-15 -1 -27 -5 -20 -16 -25 -73 -35 -120 -21 -207 -97 -240 -210 -17 -58 -13
-137 8 -176 8 -16 3 -55 -23 -169 -29 -135 -34 -149 -52 -144 -36 9 -46 -5
-67 -99 -31 -136 -31 -136 63 -159 46 -11 82 -15 88 -9 13 13 53 209 46 227
-4 9 -16 16 -27 16 -25 0 -25 -1 0 113 31 139 28 132 53 109 60 -55 168 -84
240 -64 20 6 37 9 37 7 0 -6 -130 -591 -335 -1505 -155 -689 -215 -976 -212
-1003 6 -44 38 -83 84 -103 17 -7 84 -25 149 -39 104 -22 120 -24 133 -11 25
26 -3 42 -122 70 -142 34 -173 47 -181 81 -4 17 34 210 113 563 129 576 234
1036 274 1197 14 55 60 255 103 445 72 323 79 347 110 384 50 58 68 104 72
183 3 60 0 80 -21 126 -28 62 -78 116 -131 141 -32 15 -35 20 -30 44 4 15 9
29 11 31 2 3 67 -9 145 -26 78 -17 147 -29 155 -26 15 6 18 39 3 48 -11 7
-627 145 -647 145 -8 0 -16 -7 -19 -15z m307 -378 c37 -28 50 -88 28 -129 -14
-26 -67 -48 -101 -41 -71 14 -99 112 -45 159 31 27 91 32 118 11z"/>
<path d="M11331 7473 c-13 -26 1 -45 30 -41 18 2 24 9 24 28 0 32 -39 41 -54
13z"/>
<path d="M3755 7693 c-4 -10 -10 -43 -14 -73 -6 -52 -8 -55 -31 -52 -14 2 -72
5 -130 5 -95 2 -111 -1 -162 -25 -102 -47 -150 -144 -151 -298 0 -36 7 -90 15
-120 25 -88 41 -195 34 -224 -4 -18 -13 -26 -29 -26 -12 0 -35 -8 -52 -17 -24
-14 -54 -17 -160 -15 -153 2 -203 -10 -320 -73 -49 -26 -111 -49 -159 -60 -56
-12 -119 -38 -220 -90 -77 -40 -163 -79 -191 -86 -99 -24 -174 -71 -445 -277
-30 -23 -89 -72 -130 -107 -71 -61 -100 -77 -100 -55 0 5 -28 39 -62 76 -106
113 -207 165 -365 185 l-88 11 -480 -101 c-264 -56 -488 -104 -497 -107 -16
-5 -18 -21 -18 -161 l0 -155 23 6 c12 3 57 11 99 17 68 11 79 10 103 -5 15
-10 35 -36 45 -59 10 -23 58 -233 108 -467 l89 -425 -31 -7 c-17 -4 -59 -10
-93 -13 -59 -7 -62 -6 -68 16 -3 13 -32 155 -65 314 -75 362 -75 362 -115 402
-42 42 -95 47 -95 9 0 -17 8 -27 28 -34 15 -5 33 -20 39 -33 17 -32 145 -633
146 -684 1 -22 5 -42 9 -45 4 -3 96 -426 204 -940 108 -514 202 -941 209 -948
16 -18 45 -4 45 22 0 12 -88 438 -195 946 -107 508 -193 926 -190 928 2 3 19
6 37 7 18 2 59 6 91 10 32 5 57 4 57 -1 0 -5 111 -535 246 -1179 221 -1048
249 -1173 271 -1197 79 -84 273 -27 273 80 0 11 -87 435 -194 943 -268 1273
-268 1275 -261 1319 4 21 16 47 28 58 27 25 132 55 167 47 29 -6 234 19 273
34 28 11 37 31 15 31 -7 0 13 11 45 24 144 59 251 189 292 354 21 81 15 211
-16 353 l-23 106 45 52 c56 66 139 120 256 166 105 42 180 85 250 143 87 72
123 85 263 93 110 7 230 21 366 44 l41 7 81 -243 c77 -232 87 -272 111 -414
19 -111 33 -329 27 -405 -9 -96 -27 -175 -77 -330 -74 -228 -66 -320 48 -547
l66 -133 -13 -57 c-6 -32 -16 -80 -21 -108 -5 -27 -27 -140 -49 -250 -22 -110
-47 -258 -56 -330 l-17 -130 -64 -75 c-127 -149 -182 -254 -270 -517 -36 -110
-83 -222 -135 -325 -77 -154 -80 -158 -136 -192 -31 -19 -70 -38 -87 -42 -16
-4 -49 -17 -71 -29 -23 -12 -56 -27 -74 -33 -29 -11 -31 -14 -25 -44 10 -49
61 -155 101 -211 20 -28 61 -93 91 -146 68 -117 143 -219 215 -288 150 -146
322 -119 214 33 -67 94 -80 125 -80 191 -1 59 0 63 22 63 37 0 47 38 33 117
-12 67 -12 69 18 127 17 33 31 68 31 77 0 22 -32 41 -54 33 -21 -8 -21 -7 14
81 52 130 104 224 234 420 112 168 126 185 121 150 -16 -123 -13 -175 10 -175
8 0 15 18 18 48 28 255 23 236 103 369 50 81 88 131 114 151 76 55 96 95 134
254 16 68 64 198 141 383 97 233 165 418 203 554 6 22 18 27 117 47 247 50
428 106 531 164 30 16 56 30 58 30 3 0 -3 -19 -13 -42 -41 -98 -54 -184 -48
-319 7 -139 -1 -207 -53 -454 -40 -187 -67 -289 -79 -293 -10 -3 -71 -152 -71
-174 0 -7 -10 -43 -21 -80 -26 -81 -21 -90 54 -112 62 -17 567 -41 654 -31 76
9 209 61 228 88 36 52 0 114 -61 102 -44 -8 -147 11 -202 37 -26 12 -49 32
-58 52 -9 17 -30 43 -47 57 l-30 26 25 14 c42 23 128 90 128 100 0 18 -28 8
-84 -31 -98 -69 -148 -48 -127 51 6 28 18 63 26 79 19 36 19 40 1 40 -18 0
-54 -57 -62 -99 -14 -68 -14 -19 0 85 12 87 28 145 79 284 118 322 209 620
226 744 18 129 -11 225 -88 283 -73 57 -199 83 -511 109 -136 11 -241 13 -347
8 -178 -8 -166 -16 -184 122 -11 81 -10 98 9 179 12 50 28 140 36 200 13 95
35 213 53 293 6 24 14 27 29 12 5 -5 34 -23 64 -38 30 -16 128 -68 218 -115
208 -110 288 -142 321 -131 15 6 51 48 93 109 105 153 196 351 253 548 14 48
49 135 78 194 43 87 215 376 343 575 24 38 30 73 16 95 -8 13 -518 206 -532
201 -12 -4 -420 -659 -420 -673 1 -5 9 -25 18 -44 16 -31 29 -38 177 -93 88
-33 161 -61 162 -62 2 -1 -26 -61 -61 -132 l-64 -129 -107 -83 -108 -83 -61
58 c-33 32 -63 67 -66 78 -3 10 -25 31 -49 45 -30 17 -60 51 -99 110 -80 120
-179 190 -312 220 -30 7 -61 17 -67 23 -16 12 -17 98 -2 131 15 31 27 36 113
43 50 5 75 12 94 28 24 21 25 24 14 68 -17 66 -15 107 8 145 25 40 25 59 1 95
-13 20 -17 40 -14 75 4 34 -2 67 -22 120 -14 40 -23 77 -20 82 14 23 -17 80
-60 111 l-44 32 6 83 c4 55 2 84 -4 84 -6 0 -14 -8 -18 -17z m-2592 -1665 c25
-14 56 -44 75 -73 33 -49 33 -50 14 -65 -57 -46 -98 -220 -52 -220 10 0 24 8
29 18 19 32 11 2 -10 -40 -17 -33 -19 -46 -10 -64 17 -38 39 -28 85 41 l27 40
-6 -40 c-3 -22 -8 -50 -11 -63 -3 -16 2 -25 19 -33 22 -10 23 -14 16 -59 -4
-27 -13 -59 -20 -72 -14 -28 -58 -77 -81 -89 -33 -18 -404 -90 -448 -87 -70 5
-77 22 -148 359 -65 308 -68 329 -52 359 17 32 46 42 225 82 198 44 276 45
348 6z m1507 -3932 c0 -2 -8 -10 -17 -17 -16 -13 -17 -12 -4 4 13 16 21 21 21
13z m-53 -263 c-3 -10 -5 -4 -5 12 0 17 2 24 5 18 2 -7 2 -21 0 -30z"/>
<path d="M6465 7600 c-3 -6 140 -571 319 -1258 179 -686 397 -1526 486 -1866
89 -341 164 -624 166 -628 9 -14 44 -9 51 8 3 9 -1 41 -10 72 -41 148 -939
3594 -952 3650 -5 25 -12 32 -30 32 -13 0 -27 -5 -30 -10z"/>
<path d="M12815 7140 c-17 -19 -20 -19 -42 -5 -12 9 -23 12 -23 8 0 -5 9 -14
20 -21 11 -7 20 -19 20 -27 0 -8 5 -15 11 -15 5 0 7 5 4 10 -3 6 5 10 19 10
27 0 56 23 56 46 0 21 -44 17 -65 -6z"/>
<path d="M9231 7061 c-9 -16 44 -92 337 -487 553 -746 662 -889 681 -892 10
-2 23 4 30 12 10 12 -50 98 -352 503 -200 268 -429 577 -510 686 -81 108 -153
197 -161 197 -9 0 -20 -8 -25 -19z"/>
<path d="M12667 7050 c-21 -25 -27 -42 -27 -81 0 -60 20 -112 52 -132 12 -8
54 -18 91 -22 63 -6 71 -5 94 17 96 89 79 227 -28 234 -24 2 -69 6 -100 10
-53 6 -56 5 -82 -26z"/>
<path d="M6155 6866 c-33 -14 -80 -64 -89 -93 -3 -10 -43 -146 -90 -303 -142
-480 -244 -821 -265 -896 l-21 -71 -87 -13 c-145 -21 -158 -25 -161 -44 -4
-19 -4 -19 156 6 40 6 74 9 77 7 2 -3 -38 -147 -90 -322 -52 -174 -95 -330
-95 -345 0 -61 82 -122 165 -122 47 0 107 20 119 39 4 6 27 76 51 157 53 172
87 241 134 268 32 18 44 19 302 10 349 -13 330 0 398 -264 122 -475 361 -1426
361 -1435 0 -6 -69 -20 -153 -33 -969 -146 -1801 -542 -2502 -1189 -442 -409
-794 -894 -1055 -1452 -59 -127 -170 -395 -170 -409 0 -4 34 58 76 138 360
689 802 1276 1269 1685 93 82 233 193 360 287 437 321 1011 583 1550 707 265
61 651 121 666 103 3 -4 18 -54 33 -112 29 -111 36 -126 76 -153 61 -42 207 0
236 68 13 33 13 43 -9 130 l-24 95 131 0 c494 0 1288 -109 1866 -256 74 -18
146 -36 160 -40 77 -18 -332 153 -520 217 -467 160 -904 229 -1456 229 l-222
0 -76 303 c-234 927 -456 1813 -456 1818 0 4 19 9 43 12 23 2 55 10 72 16 47
19 12 33 -65 26 l-65 -6 -144 572 c-93 367 -152 583 -165 602 -42 61 -67 71
-184 75 -75 1 -116 -2 -137 -12z m162 -758 c18 -13 37 -34 42 -48 12 -29 122
-463 118 -466 -1 -1 -18 -4 -37 -7 -111 -16 -176 -29 -187 -39 -23 -18 -15
-31 15 -23 15 4 45 9 67 11 22 2 66 6 98 10 56 7 57 6 57 -18 0 -26 -21 -50
-55 -63 -11 -4 -92 -6 -180 -6 -128 1 -165 5 -184 18 l-25 16 43 16 c55 20 53
36 -4 35 -44 0 -45 0 -45 33 0 36 123 459 146 505 27 52 77 62 131 26z"/>
<path d="M10966 6712 c-3 -5 -12 -42 -21 -83 -24 -109 -23 -108 -47 -71 -21
34 -44 38 -61 11 -7 -12 1 -32 32 -81 23 -36 49 -69 57 -72 19 -7 154 78 154
98 0 7 -7 19 -15 26 -12 10 -20 9 -40 -4 -13 -9 -28 -16 -33 -16 -5 0 0 38 10
85 11 47 17 92 14 100 -6 16 -41 21 -50 7z"/>
<path d="M8685 6675 c-188 -41 -325 -144 -400 -299 -92 -191 -71 -348 69 -518
70 -84 154 -156 401 -343 224 -169 325 -259 362 -322 22 -38 25 -52 20 -98
-16 -157 -153 -290 -312 -303 -74 -5 -206 25 -271 63 -45 26 -91 84 -468 590
-169 226 -198 255 -253 255 -79 0 -183 -122 -163 -190 9 -31 6 -28 314 -439
262 -351 246 -332 319 -403 151 -149 462 -223 667 -160 262 81 457 319 477
582 9 119 -24 209 -120 333 -62 79 -163 167 -361 316 -252 189 -351 274 -392
336 -33 49 -36 60 -32 106 10 98 101 179 224 199 63 10 194 0 264 -21 78 -24
114 -66 479 -567 174 -238 178 -242 233 -242 96 1 183 74 183 154 -1 35 -12
57 -85 156 -320 438 -462 623 -509 665 -84 75 -206 130 -345 154 -80 15 -227
12 -301 -4z"/>
<path d="M13545 6440 c-6 -9 -38 -1124 -102 -3540 -5 -168 -7 -313 -5 -322 6
-27 51 -23 56 5 3 12 8 148 11 302 3 154 10 442 15 640 30 1100 70 2631 72
2765 3 152 3 155 -19 158 -11 2 -24 -2 -28 -8z"/>
<path d="M10844 6329 c-64 -18 -41 66 -280 -999 -79 -355 -151 -664 -160 -688
-26 -70 -92 -88 -225 -60 -50 10 -60 9 -89 -8 -63 -37 -89 -139 -56 -217 28
-67 -70 -40 1124 -307 310 -69 551 -118 563 -115 28 9 66 71 79 128 13 59 0
114 -34 146 -25 23 -47 29 -661 166 -165 37 -313 74 -328 82 -33 17 -67 68
-67 103 0 14 82 390 181 836 l182 811 -19 39 c-30 61 -138 104 -210 83z"/>
<path d="M12994 5811 c-36 -17 -58 -46 -235 -321 -106 -167 -261 -409 -344
-537 -82 -128 -190 -297 -239 -376 -50 -78 -147 -232 -218 -341 -115 -179
-128 -203 -128 -244 0 -38 5 -50 38 -82 52 -52 152 -77 202 -50 11 6 58 70
106 143 120 184 154 217 226 217 38 0 410 -116 491 -153 47 -22 57 -31 72 -70
17 -44 16 -85 -14 -999 -36 -1109 -36 -1106 -15 -1136 25 -36 73 -55 139 -56
70 0 118 23 134 63 9 23 23 394 61 1571 5 173 12 362 15 420 3 58 16 443 30
855 13 413 27 792 30 842 10 155 -21 200 -176 247 -100 31 -121 32 -175 7z
m-13 -750 c46 -45 43 -19 29 -370 -12 -277 -13 -281 -92 -281 -31 0 -101 16
-181 40 -181 56 -193 67 -167 160 14 51 273 449 307 471 41 27 61 24 104 -20z"/>
<path d="M7168 5666 c-43 -7 -78 -11 -78 -9 0 2 -9 -1 -20 -7 -23 -12 -28 -45
-5 -37 8 3 63 11 122 18 115 13 153 22 153 39 0 13 -73 11 -172 -4z"/>
<path d="M7354 5496 c-3 -8 -2 -21 2 -28 21 -35 995 -1337 1009 -1348 13 -11
19 -11 32 3 13 13 14 21 5 39 -6 13 -233 320 -504 683 -493 660 -526 699 -544
651z"/>
<path d="M5259 5456 c-3 -3 -39 -10 -80 -15 -118 -14 -139 -22 -139 -48 0 -10
5 -13 17 -8 10 3 65 12 123 19 58 7 119 20 135 29 25 13 26 16 10 17 -11 0
-29 3 -40 6 -11 3 -23 3 -26 0z"/>
<path d="M4785 5400 c-22 -5 -61 -11 -87 -15 -34 -4 -51 -12 -59 -26 -10 -20
-8 -20 38 -14 197 24 266 40 241 56 -16 11 -79 10 -133 -1z"/>
<path d="M4425 5360 c-22 -5 -66 -11 -97 -15 -54 -6 -111 -35 -97 -49 3 -4 28
-2 55 3 27 6 88 15 135 21 79 11 120 23 109 33 -12 11 -68 14 -105 7z"/>
<path d="M3990 5309 c-25 -4 -65 -11 -90 -14 -56 -7 -75 -18 -67 -39 5 -13 11
-15 26 -6 11 5 35 10 53 10 38 0 174 24 201 35 15 6 16 10 5 16 -16 10 -67 10
-128 -2z"/>
<path d="M2725 5163 c-78 -14 -105 -26 -105 -45 0 -7 13 -8 33 -3 17 4 47 8
66 10 130 13 201 29 201 46 0 13 -102 9 -195 -8z"/>
<path d="M2370 5124 c-52 -8 -104 -15 -114 -17 -19 -2 -45 -32 -36 -41 3 -2
23 0 45 4 22 5 81 15 130 21 50 7 99 17 110 22 19 10 19 10 0 18 -25 10 -21
10 -135 -7z"/>
<path d="M1945 5077 c-102 -20 -125 -28 -125 -43 0 -10 6 -13 18 -10 9 3 46 8
82 11 117 9 205 30 195 46 -8 11 -104 9 -170 -4z"/>
<path d="M1501 5025 c-71 -13 -100 -30 -82 -48 5 -5 24 -5 43 1 18 6 61 13 95
16 78 7 153 25 153 37 0 13 -123 9 -209 -6z"/>
<path d="M0 4840 c0 -23 8 -24 61 -8 54 16 49 28 -11 28 -43 0 -50 -3 -50 -20z"/>
<path d="M2983 2495 c-16 -29 -39 -212 -34 -272 1 -7 7 -13 15 -13 9 0 15 21
20 68 4 37 10 94 14 128 4 34 5 72 2 85 -6 23 -6 24 -17 4z"/>
<path d="M2921 2092 c-7 -13 -17 -67 -22 -120 -5 -53 -11 -101 -13 -107 -5
-14 12 -55 22 -55 5 0 12 35 16 78 4 42 11 95 16 117 5 22 5 56 1 75 -7 35 -7
35 -20 12z"/>
<path d="M2861 1690 c-17 -37 -40 -252 -28 -267 17 -23 27 -14 27 25 0 20 6
76 14 124 8 51 11 99 7 115 l-8 28 -12 -25z"/>
<path d="M2802 1293 c-12 -22 -41 -252 -34 -272 2 -6 10 -11 18 -11 14 0 18
19 14 72 -1 14 4 29 10 33 5 3 9 9 6 13 -2 4 0 35 4 70 4 35 5 75 1 90 -7 27
-8 27 -19 5z"/>
<path d="M2741 892 c-15 -29 -39 -248 -29 -267 15 -26 28 -16 28 23 0 20 5 65
10 100 15 93 18 139 10 153 -6 8 -11 6 -19 -9z"/>
<path d="M2680 489 c-12 -26 -37 -234 -32 -262 2 -9 10 -17 18 -17 10 0 14 12
14 43 0 23 4 58 10 77 24 91 17 219 -10 159z"/>
</g>
</svg>
